<svg xmlns="http://www.w3.org/2000/svg" xmlns:xlink="http://www.w3.org/1999/xlink" width="500" zoomAndPan="magnify" viewBox="0 0 375 374.999991" height="500" preserveAspectRatio="xMidYMid meet" version="1.0"><path fill="#00e0ff" d="M 241.28125 318.261719 C 261.5 337.945312 296.128906 345.367188 325.675781 329.449219 C 347.75 317.53125 367.285156 293.0625 364.894531 258.386719 C 363.28125 234.894531 322.695312 167.890625 299.742188 130.234375 C 282.40625 101.761719 267.949219 70.894531 243.480469 47.601562 C 192.640625 -0.75 129.734375 27.382812 108.980469 79.832031 C 126.414062 70.40625 139.40625 64.109375 170.417969 69.429688 C 227.019531 79.148438 255.933594 156.265625 282.257812 202.175781 C 288.65625 213.308594 294.90625 224.25 301.695312 235.871094 C 305.945312 243.148438 310.78125 251.695312 312.78125 259.851562 C 318.300781 282.367188 296.128906 294.429688 277.128906 278.460938 C 252.222656 257.507812 227.070312 199.976562 215.054688 178.585938 C 195.519531 143.714844 172.027344 107.523438 121.675781 116.023438 C 71.371094 124.570312 51.152344 177.023438 23.902344 225.421875 C -7.695312 281.4375 35.425781 345.808594 98.527344 336.96875 C 117.085938 334.378906 129.882812 326.078125 139.84375 315.1875 C 146.632812 307.8125 160.941406 286.664062 164.65625 277.140625 L 135.984375 227.570312 C 135.496094 228.011719 135.253906 228.402344 133.789062 230.160156 L 114.742188 262.488281 C 93.15625 299.410156 62.679688 290.328125 64.683594 265.519531 C 66.097656 247.15625 84.070312 222.394531 89.636719 212.917969 C 106.097656 184.789062 131.003906 139.417969 160.648438 185.863281 C 166.070312 194.410156 172.027344 205.789062 176.035156 212.625 C 179.890625 219.171875 182.921875 224.6875 186.679688 231.28125 C 204.164062 258.632812 218.867188 296.433594 241.28125 318.261719 Z M 241.28125 318.261719 " fill-opacity="1" fill-rule="evenodd"/></svg>